<svg width="170" height="171" viewBox="0 0 170 171" fill="none" xmlns="http://www.w3.org/2000/svg">
<path d="M31.2792 0.59518C28.296 1.38268 28.0248 10.0452 30.8046 17.9202L32.2962 22.317L25.5839 28.8139C12.7017 41.2827 4.49783 56.0483 1.10778 72.9795C-0.24824 79.6076 -0.383842 95.4233 0.836575 101.855C3.07401 113.667 8.83709 126.923 15.8206 136.308C23.8211 147.07 37.1779 157.833 49.1787 163.148C54.6706 165.576 62.8067 168.136 69.7224 169.579C75.7567 170.826 96.1648 170.629 102.47 169.251C135.896 161.901 160.169 138.867 168.508 106.645C169.797 101.658 170 99.1639 170 87.7451C170 75.7358 169.797 74.0951 168.237 68.3201C163.966 52.8983 157.592 41.742 146.812 30.8483L141.795 25.7952L143.015 20.6764C143.964 16.2795 144.507 15.2952 146.541 13.6545C151.084 9.97955 151.558 5.51705 147.693 3.0233C145.388 1.57955 141.795 2.17018 138.269 4.5983C130.743 9.71705 121.048 13.2608 118.742 11.8171C116.573 10.5046 104.436 7.2233 98.2666 6.30455C85.9268 4.46705 69.7224 5.6483 58.6708 9.25768L54.6706 10.5702L48.9753 8.33893C45.8564 7.09205 41.585 4.8608 39.4831 3.41705C35.5507 0.792055 33.3132 0.00455491 31.2792 0.59518ZM38.3305 6.10768C41.246 8.2733 45.2462 10.3077 49.2465 11.7514C60.637 15.8202 69.18 22.0545 70.6038 27.3045L71.1462 29.3389L75.5533 29.0108C83.0114 28.4202 93.9951 28.8139 97.1818 29.7327L100.233 30.5858L96.9106 30.9795C93.9273 31.242 93.6561 31.3733 94.7409 32.2264C95.3511 32.7514 96.3004 34.1295 96.8428 35.3108L97.792 37.4764L102.538 37.0827C105.996 36.8202 108.166 37.017 110.742 37.8045C112.64 38.3952 114.471 38.7233 114.878 38.5264C115.217 38.2639 115.42 38.3295 115.352 38.6577C115.217 38.9858 116.505 40.3639 118.132 41.8077C119.827 43.2514 122.268 46.0733 123.624 48.1077L126.065 51.8483L129.319 47.3202C131.082 44.8264 132.235 42.792 131.896 42.792C131.082 42.792 129.726 39.7733 129.726 37.8045C129.726 36.8858 130.201 35.3108 130.743 34.1952C131.353 33.1452 131.625 31.8983 131.353 31.5045C131.082 31.1108 131.15 30.9795 131.625 31.242C132.031 31.4389 132.506 31.3733 132.777 31.0452C133.116 30.4545 125.319 27.6983 123.217 27.6983C120.573 27.6983 123.014 26.3858 129.455 24.417C137.049 22.1202 137.998 21.3327 138.812 17.2639C139.218 15.0983 139.218 15.0983 137.117 15.492C136.032 15.6889 134.608 16.3452 134.065 16.8702C132.913 17.9858 132.167 18.1827 132.777 17.1983C133.659 15.8202 133.726 13.8514 132.913 14.1139C132.438 14.3108 132.167 14.7702 132.235 15.1639C132.37 15.5577 131.896 15.8858 131.218 15.8858C130.472 15.8858 129.252 16.4764 128.37 17.1983C127.489 17.9202 126.54 18.5108 126.201 18.5108C125.862 18.5108 125.794 18.8389 126.065 19.2983C126.336 19.692 126.268 19.8233 125.794 19.5608C124.777 18.9702 121.455 20.5452 121.861 21.5295C122.065 21.9889 121.726 22.1858 120.844 21.9889C120.098 21.792 119.556 21.9889 119.556 22.3827C119.556 22.842 119.217 22.9733 118.81 22.7764C118.471 22.5139 117.522 22.842 116.776 23.4983C115.759 24.417 115.624 24.8108 116.302 25.2702C116.912 25.6639 116.844 25.7295 115.963 25.467C114.946 25.1389 114.742 25.4014 114.946 26.5827C115.081 27.3702 115.556 27.9608 116.098 27.8295C116.912 27.6327 116.912 27.8295 116.166 28.617C115.352 29.6014 115.691 29.9952 117.183 29.667C117.522 29.6014 117.658 29.7983 117.386 30.0608C116.708 30.6514 118.2 32.3577 118.946 31.8983C119.285 31.7014 119.488 31.8983 119.42 32.3577C119.285 32.817 119.895 33.5389 120.709 33.867C121.522 34.2608 122.539 35.1795 123.014 36.0327C123.489 36.8202 124.167 37.3452 124.506 37.0827C124.912 36.8858 124.98 37.017 124.709 37.4108C124.099 38.3295 125.658 41.5452 126.54 41.0202C126.879 40.8233 126.946 41.217 126.675 42.1358C126.404 42.9233 126.472 43.4483 126.743 43.2514C127.082 43.0545 127.353 43.9077 127.353 45.0889C127.353 47.9764 126.879 47.3202 125.387 42.4639C124.37 39.117 123.421 37.8702 119.556 34.1952C111.962 27.1733 112.301 24.8764 121.387 20.217C127.15 17.1983 136.506 10.8327 136.506 9.91393C136.506 8.99518 143.083 5.3858 144.778 5.3858C148.507 5.3858 147.354 9.38893 142.812 12.2764C141.049 13.392 140.71 14.1139 140.371 17.1983C139.829 21.9889 138.405 25.7952 135.15 31.0452C132.167 35.7702 131.828 38.1983 133.659 41.1514L134.947 43.1202L132.37 46.7295C131.014 48.6983 128.913 52.242 127.624 54.6045C125.59 58.6076 125.387 59.3951 124.912 68.3858C124.37 78.2295 123.895 80.3295 120.438 87.1545C118.403 91.0264 118.403 91.0264 119.285 95.6201C120.438 101.33 121.319 103.43 124.031 106.842C128.777 112.88 134.201 129.614 135.896 143.395C136.778 150.679 137.32 149.629 130.404 154.289C125.319 157.701 117.251 161.573 115.352 161.508C114.335 161.442 114.2 161.311 114.878 161.114C115.624 160.983 116.505 159.014 117.454 155.47C119.217 149.433 123.624 135.783 124.031 135.389C124.234 135.192 124.709 135.454 125.116 135.848C126.607 137.292 126.946 136.636 125.929 134.339C124.641 131.255 122.065 120.82 122.539 120.426C122.743 120.23 123.15 120.558 123.353 121.148C123.692 122.067 123.963 122.133 124.438 121.411C124.912 120.82 124.98 120.886 124.709 121.805C124.234 123.117 126.133 125.676 127.082 125.086C127.421 124.889 127.489 125.151 127.285 125.676C127.082 126.201 127.421 126.923 127.963 127.383C130.065 129.089 126.268 117.145 122.336 109.795L120.505 106.317L118.675 111.37C117.725 114.192 117.047 116.751 117.319 117.145C117.522 117.539 117.454 117.605 117.047 117.408C116.708 117.211 115.488 118.326 114.471 119.967L112.505 122.986L111.623 120.492C110.878 118.458 110.878 117.867 111.623 117.014C113.657 114.717 113.657 114.061 111.623 115.636C110.267 116.686 109.589 117.67 109.793 118.392C109.996 119.048 109.589 119.77 108.708 120.23C107.488 120.886 107.352 121.345 107.759 123.905C108.166 126.726 108.166 126.792 105.725 127.776C104.436 128.301 102.402 128.761 101.25 128.761C99.2836 128.761 99.2158 128.695 99.2158 125.48C99.2158 122.264 99.148 122.198 97.1818 122.198C95.2155 122.198 95.1477 122.33 95.1477 125.151C95.1477 128.761 94.4019 129.155 89.9271 128.17C88.1642 127.776 85.52 127.317 84.164 127.12C79.1467 126.53 70.536 122.198 65.3153 117.67L62.9423 115.57L65.9933 117.211C71.1462 119.967 78.0619 122.198 81.5197 122.198C84.7064 122.198 84.842 122.067 88.9778 117.605C91.3509 115.111 93.9951 112.814 94.8765 112.617C95.9613 112.355 97.9954 112.814 100.707 113.995C102.945 114.98 105.996 115.964 107.42 116.095C109.657 116.423 110.267 116.161 112.03 114.455C113.183 113.405 114.268 112.683 114.539 112.945C114.81 113.142 114.81 112.945 114.539 112.486C113.793 111.239 114.81 107.301 115.556 108.483C115.963 109.139 116.098 108.811 116.098 107.433C116.098 105.333 116.98 98.6389 117.861 94.3733C118.2 92.7983 118.132 91.9451 117.725 92.2076C116.776 92.7983 114.268 98.6389 113.793 101.395C113.59 102.773 112.776 104.48 112.03 105.201C111.217 105.989 110.81 106.711 110.945 106.842C111.352 107.236 114.132 104.48 114.132 103.626C114.132 103.364 114.607 102.642 115.149 102.117C116.437 100.87 116.437 101.395 115.217 103.692C113.183 107.433 109.318 109.073 110.471 105.661C110.674 104.873 110.606 104.48 110.267 104.676C109.861 104.939 109.25 104.348 108.776 103.43C108.166 102.117 108.166 101.855 108.844 102.248C111.013 103.495 102.267 96.0795 96.775 92.0108C93.3171 89.517 90.4017 86.9576 90.1305 86.4326C89.8593 85.7764 90.4695 84.9889 91.9611 84.1358C93.1137 83.4139 94.3341 82.8233 94.5375 82.8233C94.8087 82.8233 95.8257 81.7076 96.9106 80.3951C97.9276 79.0826 98.4022 78.2295 97.8598 78.5576C97.1818 78.9514 97.114 78.6889 97.3852 77.442C97.7242 76.1951 97.453 75.4733 96.3004 74.5545C94.8087 73.3076 94.8087 73.3076 96.0291 74.6858C96.6394 75.4076 97.1818 76.2608 97.1818 76.5233C97.1818 76.7858 96.436 76.1951 95.5545 75.1451C94.6731 74.0951 92.5035 72.5858 90.8085 71.7983C89.1135 70.9451 87.6896 70.1576 87.6896 69.9608C87.6896 69.8295 89.0456 69.7639 90.7407 69.8295C92.3679 69.8295 93.5883 70.092 93.4527 70.3545C93.3171 70.5514 94.1985 71.142 95.4867 71.6014C98.4022 72.5858 100.572 75.2108 100.572 77.7045C100.572 80.1326 98.809 83.4795 97.5208 83.4795C96.6394 83.4795 96.6394 83.6764 97.5886 85.1201C98.1988 86.0389 98.9446 86.6295 99.2158 86.4326C99.5548 86.2358 99.9616 86.367 100.233 86.7608C100.707 87.4826 99.2836 90.3701 98.7412 89.7795C98.5378 89.5826 98.7412 88.8608 99.2836 88.2701C99.7582 87.6139 99.8938 87.2858 99.5548 87.6139C98.47 88.467 95.8935 85.4483 96.2326 83.6764L96.5716 82.0358L94.5375 83.4139C93.4527 84.2014 92.2323 84.792 91.8255 84.792C90.8085 84.792 90.8763 86.4326 92.0289 87.3514C92.5035 87.7451 93.4527 87.8764 94.1307 87.6795C95.0121 87.3514 95.0799 87.0889 94.3341 86.6951C93.8595 86.367 93.7917 86.1045 94.1307 86.1045C95.1477 86.1045 96.0291 86.892 97.0462 88.5326C98.0632 90.3045 98.0632 90.8951 97.1818 90.3701C96.8428 90.1733 96.5038 90.2389 96.5038 90.567C96.5038 90.8951 97.3174 91.4858 98.3344 91.9451C99.3514 92.4045 100.572 93.3233 101.046 93.9795C101.521 94.6358 102.945 95.8826 104.165 96.7358L106.335 98.2451L103.826 95.292C100.843 92.0108 100.572 89.9108 102.606 86.1045C106.064 79.6076 103.352 74.0295 94.6731 69.6983C88.7066 66.7451 79.7569 68.6483 75.0786 73.8983L72.6378 76.5889L73.7226 74.0295C74.3328 72.5858 75.2143 70.9451 75.6211 70.4201C77.6551 67.7951 80.0281 65.5639 81.8587 64.6451C84.4352 63.3326 93.7917 63.3983 96.436 64.7764C100.775 66.8764 107.623 76.4576 110.335 83.9389L111.217 86.367L112.03 82.1014C112.505 79.8045 113.59 76.392 114.471 74.6201C116.437 70.617 120.505 66.5483 121.251 67.7951C121.59 68.2545 121.522 68.4514 121.116 68.1889C120.302 67.7295 117.997 71.4045 118.539 72.3233C118.81 72.717 119.217 72.8483 119.556 72.6514C119.895 72.4545 120.302 72.5858 120.505 72.9139C120.98 73.5701 119.624 73.5045 118.403 72.7826C117.861 72.4545 117.386 73.1108 116.912 74.7514C115.624 79.1483 114.674 85.1201 114.946 87.6795L115.149 90.1076L118.336 84.3326C122.675 76.3264 123.692 70.9451 121.861 64.9076C121.522 63.8576 121.387 63.9233 120.234 65.3014C119.556 66.1545 117.725 67.4014 116.166 68.0576C113.386 69.2389 113.183 69.2389 110.132 68.1233C108.437 67.467 106.471 66.942 105.86 66.8764C105.25 66.8108 104.911 66.5483 105.047 66.2858C105.25 66.0233 105.047 65.7608 104.708 65.7608C103.419 65.7608 103.894 67.2045 106.064 69.567C108.776 72.5201 110.674 76.6545 110.742 79.4108C110.742 82.1014 109.657 81.642 109.115 78.6233C108.844 77.442 107.42 74.5545 105.86 72.2576C104.301 69.9608 103.08 67.7295 103.216 67.4014C103.352 67.0076 103.419 65.5639 103.352 64.1858C103.216 59.067 107.284 54.0139 112.437 52.9639C113.929 52.7014 113.454 53.0295 110.878 54.2764C108.911 55.2608 107.488 56.2452 107.691 56.5733C107.894 56.9014 109.793 56.1139 111.895 54.9327C113.996 53.6858 115.963 52.8327 116.234 53.0295C116.573 53.2264 116.844 53.0952 116.844 52.8327C116.844 52.5045 115.895 51.717 114.742 51.0608C113.522 50.3389 112.776 50.0764 112.979 50.4045C113.183 50.7327 111.284 50.9952 108.776 50.9295C103.623 50.8639 101.114 49.8139 97.453 46.3358C96.1648 45.0233 94.8765 44.1702 94.6731 44.367C94.4697 44.5639 94.0629 48.042 93.7917 52.1108L93.3171 59.5264V53.6202C93.2493 46.3358 93.7917 43.842 95.3511 43.5795C95.9613 43.4483 96.5038 43.7108 96.5038 44.1045C96.5038 44.7608 96.7072 44.7608 97.5208 44.1045C98.3344 43.4483 98.47 43.5795 98.1988 44.6952C97.8598 46.3358 102.47 49.7483 103.555 48.6983C104.436 47.8452 105.318 47.8452 105.318 48.6983C105.318 49.0264 104.775 49.3545 104.165 49.4202C103.487 49.4202 103.826 49.7483 104.911 50.0108C105.996 50.3389 107.962 50.3389 109.318 50.0764L111.759 49.4858L109.725 49.2889C108.64 49.2233 107.352 49.1577 106.945 49.1577C106.471 49.1577 106.199 48.6983 106.335 48.1077C106.606 46.1389 105.182 43.5139 102.538 41.1514C99.7582 38.7233 98.6056 38.3952 97.3852 39.5764C96.9106 40.0358 96.5716 39.9702 96.3004 39.2483C96.0291 38.5264 96.2326 38.3952 96.9784 38.6577C97.7242 38.9202 97.9276 38.7889 97.792 38.1327C97.5886 37.6077 95.3511 36.1639 92.7747 34.917C86.537 31.9639 83.4182 31.8983 77.6551 34.7858C75.3499 35.9014 73.248 36.8858 73.0446 36.8858C72.5022 36.8858 74.1972 34.0639 75.7567 32.3577L77.1805 30.7827L74.3328 31.242C72.7734 31.4389 71.0784 31.8327 70.4682 32.0295C69.6546 32.3577 69.3834 32.0295 69.3834 30.717C69.3834 27.1077 65.7899 22.317 60.9082 19.4295C59.281 18.5108 59.5522 18.9045 62.1287 21.4639C63.8915 23.2358 65.3153 24.942 65.3153 25.2045C65.3153 25.5327 65.6543 25.5983 66.1289 25.3358C66.6035 25.0733 66.6713 25.1389 66.4001 25.5983C66.1289 26.0577 66.2645 26.3858 66.6035 26.3858C67.0103 26.3858 67.2815 26.5827 67.2815 26.8452C67.0103 28.4858 67.4171 29.667 68.1629 29.2733C68.5698 29.0108 68.7054 29.0764 68.5019 29.4702C68.2307 29.8639 68.2307 31.1108 68.4341 32.2264C68.7732 33.867 69.0444 34.1295 70.0614 33.6045C71.2818 32.9483 72.0954 33.342 72.0954 34.5233C72.0954 34.9827 71.892 34.9827 71.553 34.4577C71.214 33.9327 70.6716 33.867 70.0614 34.2608C69.2478 34.7858 69.2478 34.917 70.2648 35.3108C70.9428 35.5077 71.892 36.5577 72.4344 37.542C73.6548 39.8389 75.1464 39.7077 80.2315 36.9514C82.2656 35.8358 84.4352 34.917 84.9776 34.917C85.52 34.917 86.9438 36.2295 88.0286 37.8045L90.0627 40.692L92.3001 39.3795C93.5205 38.6577 94.6731 38.1983 94.8765 38.3295C95.0121 38.5264 94.6731 39.9702 94.0629 41.5452C92.9103 44.6295 91.9611 56.6389 92.7069 59.4608C92.9103 60.3795 93.4527 61.167 93.8595 61.167C95.0799 61.167 100.504 65.1045 101.318 66.6139C101.86 67.5326 101.114 67.1389 99.0124 65.367C97.3174 63.9233 95.3511 62.6764 94.6731 62.6108C91.8933 62.3483 82.808 62.5451 81.7231 62.8733C81.1129 63.0701 81.3163 62.8076 82.2656 62.2826C83.4182 61.5608 85.181 61.3639 88.1642 61.5608C91.0119 61.7576 92.4357 61.6264 92.4357 61.1014C92.4357 60.642 91.1475 60.4451 88.7744 60.642L85.181 60.8389L83.6894 54.4077C82.1299 47.9108 78.6043 40.167 76.9093 39.642C76.2313 39.3795 76.0957 39.642 76.5025 40.5608C79.6213 48.1077 79.5535 57.0326 76.2991 60.7076C75.2821 61.7576 75.2143 61.7576 74.3328 59.7233C73.7904 58.542 72.1632 56.3108 70.6716 54.867C68.7732 52.9639 68.1629 51.9795 68.7054 51.6514C70.2648 50.7327 72.7734 44.4327 72.7734 41.5452C72.7734 39.1827 72.3666 38.3295 70.4004 36.4264C69.1122 35.1795 68.0273 33.6702 68.0273 33.0139C68.0273 30.7827 64.6373 25.0733 61.4506 21.8577C59.62 20.0202 58.264 18.5108 58.4674 18.5108C58.8742 18.5108 55.0774 16.7389 45.653 12.4077C41.3138 10.4389 38.0593 8.33893 35.6185 6.10768C31.008 1.84205 32.2962 1.84205 38.3305 6.10768ZM93.6561 94.6358C96.775 96.0139 97.114 96.867 95.2833 98.967C93.6561 100.936 91.5543 101.855 88.7066 101.855C84.2996 101.855 81.2485 96.9983 84.0284 94.3733C85.4522 92.9295 90.0627 93.0608 93.6561 94.6358ZM117.251 121.345C117.047 121.608 116.844 121.345 116.844 120.82C116.844 120.295 116.234 120.886 115.488 122.067C114.742 123.248 114.268 124.561 114.539 124.889C114.742 125.217 114.674 125.414 114.335 125.348C113.522 125.086 109.047 129.614 109.25 130.533C109.386 130.992 109.115 131.386 108.708 131.386C108.369 131.386 108.03 131.058 108.03 130.598C108.03 130.205 107.555 130.401 107.013 131.123C106.471 131.78 105.996 132.108 105.996 131.845C105.996 131.583 105.318 131.714 104.504 132.108C103.08 132.829 103.08 132.895 105.047 133.814C107.488 135.061 110.742 137.948 110.742 138.867C110.742 139.326 108.776 139.589 105.453 139.589C102.606 139.589 99.6226 139.851 98.8768 140.114C97.7242 140.573 98.1988 140.901 101.589 142.017C103.826 142.739 105.928 143.592 106.199 143.854C106.538 144.117 104.979 144.576 102.809 144.839C97.792 145.364 96.1648 146.217 98.7412 146.808C100.843 147.333 100.911 147.529 99.6226 148.842C99.0802 149.367 98.7412 150.483 98.9446 151.401C99.148 152.583 98.809 153.173 97.7242 153.698C96.3004 154.354 96.3004 154.354 97.3852 153.501C98.7412 152.451 98.9446 151.401 97.7242 152.123C97.1818 152.451 97.2496 152.123 97.8598 151.336C98.809 150.154 98.809 150.154 97.7242 151.008C95.8935 152.386 93.5883 156.258 94.0629 157.308C94.2663 157.898 94.0629 158.095 93.3849 157.833C92.9103 157.636 92.4357 157.045 92.4357 156.52C92.4357 154.683 88.8422 147.726 88.0964 147.989C87.6218 148.186 87.2828 147.726 87.2828 147.07C87.2828 145.495 87.2828 145.495 90.2661 147.595C92.0967 148.973 92.5035 149.104 91.7577 148.12C90.1983 146.151 88.91 145.233 86.6726 144.642L84.6386 144.051L87.893 142.476C90.7407 141.033 91.0797 140.704 90.1305 139.983C88.91 138.998 87.4184 139.654 87.9608 140.967C88.1642 141.492 87.9608 141.689 87.4184 141.492C86.198 141.033 83.486 144.445 83.9606 145.758C84.7742 147.726 84.6386 148.12 83.0792 147.923C81.7231 147.792 81.5875 147.989 81.9265 149.17C82.2656 150.023 82.1299 150.417 81.7231 150.154C81.3163 149.958 80.7739 152.386 80.2993 156.52C79.8247 160.195 79.4179 163.87 79.2823 164.658C79.0789 165.904 79.4179 166.101 81.8587 166.364L84.6386 166.626L81.4519 166.692C77.6551 166.823 77.8585 167.479 79.1467 157.964C80.5027 148.186 81.3163 146.151 85.7912 141.558C89.6559 137.554 93.2493 135.52 101.928 132.436C106.606 130.795 111.488 126.858 114.064 122.658C115.963 119.573 116.505 119.048 117.047 119.901C117.386 120.492 117.454 121.148 117.251 121.345Z" fill="white" fill-opacity="0.1"/>
</svg>
